<?xml version="1.0" standalone="no"?>
<!DOCTYPE svg PUBLIC "-//W3C//DTD SVG 20010904//EN"
 "http://www.w3.org/TR/2001/REC-SVG-20010904/DTD/svg10.dtd">
<svg version="1.0" xmlns="http://www.w3.org/2000/svg"
 width="674.000000pt" height="314.000000pt" viewBox="0 0 674.000000 314.000000"
 preserveAspectRatio="xMidYMid meet">

<g transform="translate(0.000000,314.000000) scale(0.100000,-0.100000)"
fill="#000000" stroke="none">
<path d="M1921 2906 c50 -63 109 -221 109 -293 0 -22 5 -33 14 -33 24 0 26 13
11 86 -19 89 -56 162 -108 217 -23 24 -35 34 -26 23z"/>
<path d="M1165 2858 c-4 -9 -1 -27 7 -40 l13 -23 3 22 c2 12 -1 30 -7 40 -9
17 -10 17 -16 1z"/>
<path d="M973 2703 c9 -2 25 -2 35 0 9 3 1 5 -18 5 -19 0 -27 -2 -17 -5z"/>
<path d="M820 2665 c-30 -13 -46 -24 -35 -24 11 -1 43 10 70 23 64 31 37 32
-35 1z"/>
<path d="M883 2573 c15 -2 37 -2 50 0 12 2 0 4 -28 4 -27 0 -38 -2 -22 -4z"/>
<path d="M1018 2564 c6 -11 19 -27 28 -35 16 -13 16 -12 6 7 -6 11 -19 27 -28
35 -16 13 -16 12 -6 -7z"/>
<path d="M730 2540 c-41 -16 -66 -29 -55 -29 11 0 52 13 90 29 91 38 63 38
-35 0z"/>
<path d="M1225 2507 c-55 -55 -72 -172 -37 -250 l17 -39 0 89 c0 92 8 119 60
196 21 30 22 37 9 37 -9 0 -31 -15 -49 -33z"/>
<path d="M986 2408 c20 -24 45 -47 53 -52 9 -5 -6 14 -34 43 -60 62 -72 67
-19 9z"/>
<path d="M2330 2388 c-6 -24 -16 -58 -22 -76 -11 -38 -8 -45 16 -36 23 9 36
45 36 99 0 59 -16 66 -30 13z"/>
<path d="M673 2413 c31 -2 83 -2 115 0 31 2 5 3 -58 3 -63 0 -89 -1 -57 -3z"/>
<path d="M480 2389 c-159 -42 -326 -144 -383 -234 -24 -39 -59 -115 -53 -115
2 0 22 24 45 54 51 66 150 149 250 212 82 51 125 68 216 89 39 8 49 13 30 13
-16 1 -64 -8 -105 -19z"/>
<path d="M908 2403 c7 -3 16 -2 19 1 4 3 -2 6 -13 5 -11 0 -14 -3 -6 -6z"/>
<path d="M1958 2363 c6 -2 18 -2 25 0 6 3 1 5 -13 5 -14 0 -19 -2 -12 -5z"/>
<path d="M1868 2350 c-28 -8 -98 -48 -98 -56 0 -9 46 -56 64 -66 18 -10 18 -8
-2 19 l-20 29 32 32 c18 17 43 36 57 41 29 12 5 13 -33 1z"/>
<path d="M865 2200 c-96 -48 -198 -147 -244 -236 -18 -34 -40 -121 -66 -254
-3 -14 13 9 35 50 21 41 39 84 40 96 0 42 66 148 129 211 34 35 93 84 129 108
55 37 62 45 42 45 -14 0 -43 -9 -65 -20z"/>
<path d="M2610 2106 c0 -2 8 -10 18 -17 15 -13 16 -12 3 4 -13 16 -21 21 -21
13z"/>
<path d="M2687 2035 c23 -27 50 -69 62 -91 l20 -42 -64 -7 c-36 -3 -111 -4
-168 -1 -88 4 -93 3 -37 -4 77 -11 290 -9 297 3 8 14 -44 91 -98 142 l-52 50
40 -50z"/>
<path d="M960 2003 c-66 -38 -97 -69 -150 -150 -189 -287 -184 -658 17 -1112
10 -22 -84 46 -151 108 -42 40 -53 47 -38 25 32 -46 121 -125 211 -187 l79
-54 -48 96 c-110 224 -160 417 -160 617 0 260 78 457 254 642 22 23 38 42 36
42 -3 0 -25 -12 -50 -27z"/>
<path d="M1705 1939 c-149 -25 -238 -121 -216 -234 6 -34 27 -85 34 -85 1 0 2
30 3 68 1 79 18 118 77 174 61 56 98 69 202 70 76 1 83 2 45 9 -55 9 -81 9
-145 -2z"/>
<path d="M1237 1901 c-32 -38 -42 -109 -34 -235 10 -159 63 -279 172 -386 l55
-54 0 34 c0 23 -3 30 -9 22 -12 -19 -79 62 -120 144 -59 119 -74 259 -46 419
8 43 13 81 11 83 -2 1 -15 -11 -29 -27z"/>
<path d="M1908 1923 c6 -2 18 -2 25 0 6 3 1 5 -13 5 -14 0 -19 -2 -12 -5z"/>
<path d="M1381 1904 c0 -11 3 -14 6 -6 3 7 2 16 -1 19 -3 4 -6 -2 -5 -13z"/>
<path d="M2383 1903 c9 -2 25 -2 35 0 9 3 1 5 -18 5 -19 0 -27 -2 -17 -5z"/>
<path d="M2382 1863 c17 -39 26 -50 48 -56 18 -5 18 -4 3 22 -39 61 -72 84
-51 34z"/>
<path d="M2743 1739 c-11 -19 -30 -53 -41 -76 -21 -41 -21 -43 -3 -43 25 0 36
15 56 77 21 65 15 87 -12 42z"/>
<path d="M312 1739 c-112 -19 -199 -87 -240 -189 -21 -54 -54 -181 -48 -187 1
-2 15 27 29 64 60 152 184 284 281 298 25 4 49 11 52 16 6 10 -1 10 -74 -2z"/>
<path d="M2582 1710 c-12 -12 -22 -30 -22 -40 0 -13 -9 -22 -27 -26 -16 -3
-91 -24 -168 -46 -193 -56 -242 -67 -300 -69 -50 -1 -50 -1 -17 -12 42 -13
152 8 322 62 122 39 195 52 217 38 8 -5 14 11 18 48 4 31 5 58 3 60 -2 3 -14
-4 -26 -15z"/>
<path d="M1508 1493 c-24 -61 -22 -135 7 -209 38 -95 83 -158 216 -303 214
-233 244 -285 244 -426 0 -98 3 -89 -116 -315 l-39 -75 6 71 c8 86 -10 199
-42 272 -21 47 -145 192 -164 192 -4 0 -13 -26 -19 -57 -7 -32 -32 -103 -54
-157 l-41 -100 -12 66 c-22 117 -42 149 -195 302 -156 156 -171 150 -20 -9
144 -150 151 -159 156 -191 2 -16 11 -49 19 -73 9 -24 16 -68 16 -97 0 -62 8
-66 56 -29 56 43 126 183 126 253 l0 34 25 -24 c35 -33 108 -142 90 -135 -12
4 -11 -4 5 -46 37 -97 33 -241 -9 -362 l-14 -39 32 29 c80 75 163 185 207 274
46 91 47 97 47 185 0 81 -3 98 -31 156 -37 77 -87 143 -204 265 -127 133 -182
204 -223 286 -39 81 -62 190 -52 251 8 44 -1 50 -17 11z"/>
<path d="M403 1395 c-77 -120 -86 -150 -89 -294 -1 -107 1 -130 20 -172 11
-27 23 -49 27 -49 3 0 1 37 -4 83 -11 107 7 243 41 317 l25 55 14 -65 c8 -36
23 -92 33 -125 11 -33 17 -49 15 -35 -3 14 -15 70 -27 125 -17 84 -19 111 -11
170 6 39 10 71 9 71 -1 1 -25 -36 -53 -81z"/>
<path d="M2547 1424 c-22 -69 -78 -156 -123 -190 l-32 -25 -39 19 c-39 20
-166 62 -187 62 -21 0 18 -20 73 -36 30 -8 83 -29 119 -46 60 -28 68 -30 91
-17 69 39 159 199 146 261 -10 44 -28 33 -48 -28z"/>
<path d="M973 1401 c-77 -49 -115 -97 -139 -172 l-19 -60 -6 48 c-4 34 -6 20
-7 -52 l-1 -100 19 53 c28 78 85 166 138 213 l47 41 7 -128 c3 -71 13 -149 21
-174 20 -59 20 -35 2 70 -20 112 -20 232 0 270 9 17 12 30 7 30 -5 0 -36 -17
-69 -39z"/>
<path d="M1761 1355 c0 -61 25 -95 112 -149 66 -41 75 -41 18 1 -56 41 -93 89
-113 147 l-17 51 0 -50z"/>
<path d="M235 1205 c2 -52 10 -107 19 -130 9 -22 14 -29 12 -15 -4 22 -17 108
-30 205 -3 17 -3 -10 -1 -60z"/>
<path d="M1713 1195 c0 -22 2 -30 4 -17 2 12 2 30 0 40 -3 9 -5 -1 -4 -23z"/>
<path d="M1885 1008 c90 -82 179 -171 213 -214 l23 -29 -18 34 c-24 46 -119
141 -218 219 l-80 63 80 -73z"/>
<path d="M2128 1036 c85 -92 95 -144 64 -324 l-18 -104 -17 39 c-9 21 -20 56
-23 78 -7 36 -8 37 -14 15 -3 -14 2 -51 12 -83 10 -33 18 -87 19 -120 l1 -62
40 85 c51 106 68 168 67 250 0 108 -36 176 -126 240 l-48 34 43 -48z"/>
</g>
</svg>
